<svg xmlns="http://www.w3.org/2000/svg" width="19.404" height="24.128" viewBox="0 0 19.404 24.128"><defs><style>.a{stroke:rgba(0,0,0,0);stroke-miterlimit:10;}</style></defs><path class="a" d="M-345.958-130a3.011,3.011,0,0,1-.337-.4q-1.253-2.15-2.492-4.308c-.039-.067-.081-.133-.136-.222-.062.1-.1.172-.145.242q-1.239,2.145-2.48,4.289a3,3,0,0,1-.338.4h-.27a.638.638,0,0,1-.358-.481c-.188-.731-.387-1.459-.583-2.187-.013-.049-.032-.1-.056-.168l-1.753.464c-.231.061-.463.118-.692.186a.445.445,0,0,1-.523-.147.454.454,0,0,1-.009-.545q1.015-1.757,2.029-3.516c.052-.089.1-.18.158-.281-.2-.034-.372-.055-.543-.1a2.114,2.114,0,0,1-1.649-2.061,1.468,1.468,0,0,0-.816-1.4,2.105,2.105,0,0,1-.775-2.855,1.518,1.518,0,0,0,0-1.662,2.113,2.113,0,0,1,.786-2.87,1.457,1.457,0,0,0,.8-1.386,2.129,2.129,0,0,1,2.131-2.13,1.459,1.459,0,0,0,1.386-.8,2.118,2.118,0,0,1,2.891-.776,1.478,1.478,0,0,0,1.621,0,2.11,2.11,0,0,1,2.875.766,1.475,1.475,0,0,0,1.4.816A2.13,2.13,0,0,1-341.706-149a1.449,1.449,0,0,0,.789,1.371,2.119,2.119,0,0,1,.774,2.925,1.43,1.43,0,0,0,0,1.562,2.123,2.123,0,0,1-.774,2.926,1.443,1.443,0,0,0-.791,1.37,2.13,2.13,0,0,1-1.878,2.12l-.321.042c.045.082.081.151.12.218l2.053,3.554c.156.271.143.533-.073.655a.659.659,0,0,1-.44.064c-.769-.189-1.532-.4-2.3-.606-.043-.011-.086-.02-.155-.036-.061.218-.122.431-.179.644-.155.577-.312,1.154-.459,1.733a.627.627,0,0,1-.353.46Zm-6.409-3.41c.074.266.143.534.216.8.085.314.172.629.271.993l1.939-3.361a.355.355,0,0,0-.085-.006,2.185,2.185,0,0,1-2.7-1.085,2.5,2.5,0,0,0-.3-.384l-1.8,3.122c.093-.02.136-.027.177-.038.534-.143,1.068-.288,1.6-.431a.952.952,0,0,1,.242-.037C-352.579-133.836-352.447-133.7-352.366-133.411Zm6.394,1.775c.029-.081.05-.128.063-.176q.207-.768.412-1.536c.123-.456.3-.558.751-.438l1.493.4c.065.017.133.027.237.047l-1.807-3.129c-.145.207-.277.376-.388.558a2.16,2.16,0,0,1-2.243,1.02c-.141-.025-.28-.063-.457-.1Zm-1.739-4.294a1.232,1.232,0,0,0,1.743-.473,2.2,2.2,0,0,1,2.075-1.2,1.262,1.262,0,0,0,1.3-1.289,3.055,3.055,0,0,1,.029-.514,2.183,2.183,0,0,1,1.142-1.552,1.231,1.231,0,0,0,.507-1.732,2.272,2.272,0,0,1,0-2.479,1.219,1.219,0,0,0-.463-1.693,2.223,2.223,0,0,1-1.226-2.106,1.24,1.24,0,0,0-1.282-1.275,2.2,2.2,0,0,1-2.079-1.194,1.241,1.241,0,0,0-1.761-.474,2.213,2.213,0,0,1-2.4,0,2.688,2.688,0,0,0-.53-.2,1.339,1.339,0,0,0-1.241.687,2.162,2.162,0,0,1-2.023,1.172,1.26,1.26,0,0,0-1.328,1.324,2.172,2.172,0,0,1-1.167,2.026,1.247,1.247,0,0,0-.489,1.789,2.2,2.2,0,0,1-.007,2.378,1.24,1.24,0,0,0,.47,1.762,2.2,2.2,0,0,1,1.2,2.078,1.246,1.246,0,0,0,1.294,1.287,2.2,2.2,0,0,1,2.074,1.2,1.235,1.235,0,0,0,1.744.468,2.379,2.379,0,0,1,1.208-.355A2.372,2.372,0,0,1-347.711-135.93Zm-7.825-7.364a6.584,6.584,0,0,1,.6-3.449c.15-.322.376-.441.631-.33s.335.369.185.7a5.744,5.744,0,0,0,2.136,7.307,5.749,5.749,0,0,0,8.729-3.9,5.746,5.746,0,0,0-4.854-6.645,5.648,5.648,0,0,0-3.2.463c-.054.025-.108.05-.164.072a.439.439,0,0,1-.6-.231.436.436,0,0,1,.23-.582,6.142,6.142,0,0,1,1.829-.585c.362-.053.728-.077,1.092-.114a6.687,6.687,0,0,1,6.61,6.012,6.654,6.654,0,0,1-5.434,7.2,6.562,6.562,0,0,1-1.184.108A6.67,6.67,0,0,1-355.536-143.294Zm6.689,2.918a5.769,5.769,0,0,1-1.071-.205.315.315,0,0,0-.281.031,1.106,1.106,0,0,1-.492.177c-.455.024-.912.015-1.368.006a.809.809,0,0,1-.816-.834q-.007-1.84,0-3.68a.816.816,0,0,1,.827-.828c.441-.011.883,0,1.324,0a.469.469,0,0,1,.24.04c.218.143.368.032.531-.1a4.95,4.95,0,0,0,1.011-1.162,1.146,1.146,0,0,1,1.242-.529,1.112,1.112,0,0,1,.948.927,1.938,1.938,0,0,1-.045.7,4.642,4.642,0,0,1-.2.6c.266.012.514.008.757.038a1.43,1.43,0,0,1,1.266,1.424q.011.987,0,1.974a1.432,1.432,0,0,1-1.411,1.424c-.418.006-.837.011-1.255.011S-348.443-140.36-348.847-140.376Zm-1.032-1.364c0,.165.051.258.2.29a5.655,5.655,0,0,0,.939.178c.747.027,1.5.012,2.243.009a.562.562,0,0,0,.627-.642c0-.561,0-1.122,0-1.683,0-.531-.195-.725-.732-.728-.426,0-.852,0-1.279,0a.411.411,0,0,1-.418-.31.376.376,0,0,1,.151-.475.624.624,0,0,0,.3-.434c.055-.178.121-.353.179-.53.081-.245.038-.406-.128-.486s-.324-.017-.46.2a5.276,5.276,0,0,1-1.484,1.539.383.383,0,0,0-.134.27c-.014.463-.006.927-.006,1.391h0C-349.874-142.682-349.866-142.211-349.879-141.74Zm-2.081.468h1.174v-3.522h-1.174Zm-1.792-7.042a.448.448,0,0,1,.448-.439.444.444,0,0,1,.442.444.435.435,0,0,1-.434.447h-.008A.443.443,0,0,1-353.751-148.314Z" transform="translate(358.629 153.629)"/></svg>