<svg xmlns="http://www.w3.org/2000/svg" width="26.308" height="25" viewBox="0 0 26.308 25"><defs><style>.a{fill:#009F42;}</style></defs><path class="a" d="M-646.847-42l-10.568-.012A2.41,2.41,0,0,1-660-44.4v-13a1.9,1.9,0,0,1,1.933-1.86h.018c0-1.015.595-1.178,1.491-1.422l.02-.006a14.243,14.243,0,0,1,3.15-.448.382.382,0,0,1,.409.352.379.379,0,0,1-.366.393,13.551,13.551,0,0,0-2.98.421l-.02.006a2.967,2.967,0,0,0-.808.283c-.045.034-.119.091-.119.428V-45.81a16.131,16.131,0,0,1,5.666-.734,15.127,15.127,0,0,1,4.37.709V-59.661a12.42,12.42,0,0,0-4.242-.731.379.379,0,0,1-.366-.393.384.384,0,0,1,.409-.353,13.408,13.408,0,0,1,4.587.828,6.625,6.625,0,0,1,1.4-.443c-.011-.112-.016-.228-.016-.35a3.271,3.271,0,0,1,1-2.442,3.888,3.888,0,0,1,2.722-.993,3.9,3.9,0,0,1,2.723.993,3.277,3.277,0,0,1,1,2.442c0,.074,0,.145-.006.215.3.056.586.123.872.2l.018,0c.9.245,1.491.407,1.494,1.423h.016a1.9,1.9,0,0,1,1.935,1.86v13a2.411,2.411,0,0,1-2.586,2.39l-4.515.005a.38.38,0,0,1-.389-.373.382.382,0,0,1,.388-.374l4.515-.005a1.655,1.655,0,0,0,1.81-1.643v-13a1.137,1.137,0,0,0-1.158-1.113h-.016v13.464a1.178,1.178,0,0,1-1.19,1.163h-9.625v1.138l3.865,0h0a.38.38,0,0,1,.388.373.382.382,0,0,1-.388.374l-4.253,0Zm-12.376-15.4v13a1.655,1.655,0,0,0,1.809,1.643l10.179.012v-1.138h-9.626a1.177,1.177,0,0,1-1.188-1.163V-58.512h-.018A1.136,1.136,0,0,0-659.223-57.4Zm12.765,12.374v.394h9.625a.421.421,0,0,0,.411-.376,13.762,13.762,0,0,0-4.947-.8A14.283,14.283,0,0,0-646.458-45.025Zm-10.812.017a.414.414,0,0,0,.409.376h9.626v-.394a14.259,14.259,0,0,0-5.088-.78A13.766,13.766,0,0,0-657.27-45.008Zm20.85-.8V-59.252c0-.337-.075-.394-.119-.428a3.009,3.009,0,0,0-.81-.284l-.02-.005c-.258-.071-.518-.131-.788-.182a4.35,4.35,0,0,1-1,1.6,2.919,2.919,0,0,0-.881,1.615,1.3,1.3,0,0,1,.843,1.2,1.318,1.318,0,0,1-1.342,1.289h-2.425a1.318,1.318,0,0,1-1.342-1.289,1.294,1.294,0,0,1,.844-1.2,2.928,2.928,0,0,0-.882-1.615,4.544,4.544,0,0,1-.955-1.473,5.94,5.94,0,0,0-1.166.361v13.826a15.139,15.139,0,0,1,4.371-.709c.2-.007.431-.011.681-.011A15.328,15.328,0,0,1-636.42-45.81Zm-7.1-9.926a.555.555,0,0,0,.565.542h2.425a.555.555,0,0,0,.566-.542.556.556,0,0,0-.566-.543h-2.425A.556.556,0,0,0-643.523-55.736Zm2.165-1.29h.552a3.635,3.635,0,0,1,1.055-2A2.9,2.9,0,0,0-638.8-61.1a2.561,2.561,0,0,0-.77-1.911,3.1,3.1,0,0,0-2.173-.779h-.012a3.1,3.1,0,0,0-2.172.779,2.56,2.56,0,0,0-.769,1.911,2.9,2.9,0,0,0,.953,2.076,3.636,3.636,0,0,1,1.056,2h.55v-2.587h-.649a.381.381,0,0,1-.388-.373.381.381,0,0,1,.388-.374h2.035a.381.381,0,0,1,.388.374.381.381,0,0,1-.388.373h-.609Zm-3.74,8.293a.365.365,0,0,1,.14-.511,7.877,7.877,0,0,1,3.155-.625,9.635,9.635,0,0,1,3.94.608.367.367,0,0,1,.191.5.39.39,0,0,1-.353.217.394.394,0,0,1-.162-.034,9.68,9.68,0,0,0-6.381-.016.4.4,0,0,1-.195.05A.389.389,0,0,1-645.1-48.733Zm-10.926-.032a.367.367,0,0,1,.191-.5,9.639,9.639,0,0,1,3.94-.608,7.912,7.912,0,0,1,3.156.624.366.366,0,0,1,.14.511.4.4,0,0,1-.531.136,9.688,9.688,0,0,0-6.382.016.408.408,0,0,1-.162.034A.39.39,0,0,1-656.023-48.765Zm10.925-2.709a.367.367,0,0,1,.141-.511,7.884,7.884,0,0,1,3.155-.624,9.616,9.616,0,0,1,3.939.608.368.368,0,0,1,.191.5.39.39,0,0,1-.353.217.394.394,0,0,1-.162-.034,9.68,9.68,0,0,0-6.381-.016.4.4,0,0,1-.195.051A.392.392,0,0,1-645.1-51.474Zm-4.028.135a9.693,9.693,0,0,0-6.382.016.394.394,0,0,1-.162.034.39.39,0,0,1-.353-.217.367.367,0,0,1,.191-.5,9.637,9.637,0,0,1,3.94-.608,7.9,7.9,0,0,1,3.156.624.365.365,0,0,1,.14.51.389.389,0,0,1-.336.187A.4.4,0,0,1-649.126-51.339Zm-6.9-2.907a.368.368,0,0,1,.191-.5,9.618,9.618,0,0,1,3.94-.608,7.9,7.9,0,0,1,3.156.624.366.366,0,0,1,.14.511.4.4,0,0,1-.531.135,9.686,9.686,0,0,0-6.381.016.4.4,0,0,1-.163.035A.39.39,0,0,1-656.023-54.246Zm0-2.742a.367.367,0,0,1,.191-.5,9.632,9.632,0,0,1,3.94-.607,7.894,7.894,0,0,1,3.155.623.365.365,0,0,1,.142.51.4.4,0,0,1-.531.136,9.708,9.708,0,0,0-6.383.016.4.4,0,0,1-.162.035A.391.391,0,0,1-656.023-56.989Zm17.31-7.52a.364.364,0,0,1,0-.529l.721-.694a.4.4,0,0,1,.549,0,.363.363,0,0,1,0,.528l-.721.694a.393.393,0,0,1-.274.11A.4.4,0,0,1-638.713-64.509Zm-6.609,0-.722-.695a.362.362,0,0,1,0-.528.4.4,0,0,1,.549,0l.722.694a.363.363,0,0,1,0,.528.4.4,0,0,1-.275.11A.4.4,0,0,1-645.322-64.509Zm3.19-1.138v-.98a.381.381,0,0,1,.388-.373.381.381,0,0,1,.389.373v.98a.381.381,0,0,1-.389.373A.381.381,0,0,1-642.131-65.647Z" transform="translate(660 67)"/></svg>