<svg xmlns="http://www.w3.org/2000/svg" width="20.001" height="20" viewBox="0 0 20.001 20"><path d="M-356.594-133a.39.39,0,0,1-.39-.39v-10.523A1.945,1.945,0,0,1-358-145.578v-.781c0-.222.03-.082,2.578-4.787v-.682A1.174,1.174,0,0,1-354.25-153h12.5a1.174,1.174,0,0,1,1.172,1.172v.682c2.522,4.66,2.578,4.563,2.578,4.787v.781a1.967,1.967,0,0,1-1.016,1.665v10.523a.39.39,0,0,1-.39.39Zm7.032-9.062a.391.391,0,0,1,.39.39v7.891h9.375v-9.863a2.03,2.03,0,0,1-.273.019,2.153,2.153,0,0,1-1.425-.559,2.041,2.041,0,0,1-.235-.25,1.951,1.951,0,0,1-1.582.809,1.953,1.953,0,0,1-1.563-.782,1.952,1.952,0,0,1-1.563.782,1.952,1.952,0,0,1-1.563-.782,1.95,1.95,0,0,1-1.562.782,1.952,1.952,0,0,1-1.563-.782,1.952,1.952,0,0,1-1.563.782,1.951,1.951,0,0,1-1.582-.809,2.109,2.109,0,0,1-.235.25,2.153,2.153,0,0,1-1.425.559,2.051,2.051,0,0,1-.274-.019v9.863h1.563v-7.891a.391.391,0,0,1,.391-.39Zm-4.3,8.282h3.906v-3.359h-3.906Zm0-4.141h3.906v-3.36h-3.906Zm12.5-7.657a1.283,1.283,0,0,0,1.289,1.172,1.3,1.3,0,0,0,.482-.094,1.216,1.216,0,0,0,.808-1.078v-.39h-2.578Zm-3.126,0a1.173,1.173,0,0,0,1.172,1.172,1.173,1.173,0,0,0,1.172-1.172v-.39h-2.344Zm-3.125,0a1.173,1.173,0,0,0,1.172,1.172,1.173,1.173,0,0,0,1.172-1.172v-.39h-2.343Zm-3.126,0a1.173,1.173,0,0,0,1.172,1.172,1.173,1.173,0,0,0,1.172-1.172v-.39h-2.344Zm-3.125,0a1.173,1.173,0,0,0,1.172,1.172,1.173,1.173,0,0,0,1.172-1.172v-.39h-2.344Zm-3.359,0a1.217,1.217,0,0,0,.779,1.065,1.318,1.318,0,0,0,.511.106,1.283,1.283,0,0,0,1.289-1.172v-.39h-2.578Zm15.75-1.172h2.418l-2.149-3.906h-1.571Zm-3.076,0h2.253l-1.3-3.906h-1.6Zm-3.065,0h2.273l-.65-3.906h-1.622Zm-3.054,0h2.273v-3.906h-1.622Zm-3.045,0h2.253l.65-3.906h-1.6Zm-3.241,0h2.417l1.3-3.906H-354.8Zm2.308-5.079v.391h13.282v-.391a.391.391,0,0,0-.391-.39h-12.5A.391.391,0,0,0-354.641-151.828Zm12.5,15.86a.39.39,0,0,1,.39-.39.39.39,0,0,1,.391.39.39.39,0,0,1-.391.39A.39.39,0,0,1-342.14-135.968Zm-4.3.39a.39.39,0,0,1-.39-.39.39.39,0,0,1,.39-.39h3.126a.39.39,0,0,1,.39.39.39.39,0,0,1-.39.39Zm-.781-1.562a.391.391,0,0,1-.39-.391.391.391,0,0,1,.39-.39h.391v-3.751a.391.391,0,0,1,.39-.39h4.687a.391.391,0,0,1,.391.39v3.751h.39a.391.391,0,0,1,.391.39.391.391,0,0,1-.391.391Zm1.172-.781h3.906v-3.36h-3.906Z" transform="translate(358 153)"/></svg>